<svg height='100px' width='100px'  fill="#000000" xmlns="http://www.w3.org/2000/svg" data-name="Layer 1" viewBox="0 0 100 100" x="0px" y="0px"><title>user interface,UI,UX,email,post</title><path d="M91,22.29a1.06,1.06,0,0,0-.31-.53A1,1,0,0,0,90,21.5H10a.69.69,0,0,0-.25,0,1,1,0,0,0-.75,1v55a1,1,0,0,0,.75,1,.69.69,0,0,0,.25,0H90a1,1,0,0,0,1-1v-55a1.23,1.23,0,0,0,0-.2ZM86.79,23.5,50,55.67,13.25,23.5ZM11,74V24.18l.27.24.25.22L37,46.94h0l-25.94,27Zm.42,2.54.51-.53L38.56,48.31h0l.15.12,10.65,9.32a1,1,0,0,0,1.32,0l10.71-9.37L87.69,76l.48.5Zm77.58-2L62.89,47.07,89,24.23Z"></path></svg>