<svg class="defense" class="/Applications/MAMP/htdocs/stabilize/assets/images/defense.svg" xmlns="http://www.w3.org/2000/svg" viewBox="0 0 48.2 55.5"><path d="M47.4 10.1c0-.2-.2-.4-.4-.5L25 .1h-.6l-8.5 3.4C10.9 5.4 6 7.4 1.1 9.3c-.2.1-.4.3-.4.6-1 5.6-1.4 14.2 2.4 23.3 5.5 13.4 16.5 19.9 21.1 22.1.1.1.3.1.4.1.2 0 .3-.1.4-.1 4-1.9 13.7-7.7 19.3-19.5 5-10.7 4.1-20.7 3.1-25.7zm-1.2 14.3H25.4V1.9L46 10.8c.5 3.1 1.1 7.9.2 13.6zM2.1 10.6c4.8-1.9 9.5-3.8 14.3-5.7l7.5-3v22.5H2.1c-.9-5.4-.6-10.2 0-13.8zm2.3 22c-1-2.3-1.6-4.6-2.1-6.8h21.5v27.7C19 51 9.4 44.7 4.4 32.6zm38.5 2.6c-5 10.6-13.3 16.1-17.6 18.3V25.9h20.6c-.5 2.9-1.5 6.1-3 9.3z" fill="#4859e0"/></svg>