<svg class="design-animation" class="/Applications/MAMP/htdocs/stabilize/assets/images/design-animation.svg" xmlns="http://www.w3.org/2000/svg" viewBox="0 0 53.4 40.7"><path style="fill:#4859e0" d="M47.8 6.8h2c.3 0 .5-.2.5-.5v-2c0-.3-.2-.5-.5-.5h-2c-.3 0-.5.2-.5.5v2c0 .2.2.5.5.5zm.5-2.1h1v1h-1v-1zM44 6.8h2c.3 0 .5-.2.5-.5v-2c0-.3-.2-.5-.5-.5h-2c-.3 0-.5.2-.5.5v2c0 .2.3.5.5.5zm.5-2.1h1v1h-1v-1z"/><path style="fill:#4859e0" d="M53.4 40V.8c0-.5-.4-.8-.8-.8H.8C.3 0 0 .3 0 .8V40c0 .4.3.8.8.8h51.9c.3-.1.7-.4.7-.8zm-1.5-.8H1.5v-29h50.4v29zm0-30.4H1.5V1.5h50.4v7.3z"/><path style="fill:#4859e0" d="M22.5 28.7h.2l9.1-2.9-.2.2c-.1.2-.1.5.2.7.1 0 .2.1.3.1.2 0 .3-.1.4-.2l.8-1.3c.1-.1.1-.2.1-.3v-.2c0-.1-.1-.2-.3-.3l-1.4-.6c-.3-.1-.5 0-.7.3-.1.3 0 .5.3.7l.2.1-9.2 2.9c-.3.1-.4.4-.3.6.1.1.3.2.5.2zm23.3-3.3c.2.1.4.1.6.1.2-.1.4-.2.5-.4.6-1 .9-2.1.9-3.2 0-.2-.1-.4-.2-.5s-.3-.2-.5-.2-.4.1-.5.2c-.1.1-.2.3-.2.5 0 .9-.2 1.7-.7 2.5-.1.2-.1.4-.1.6-.1.2 0 .3.2.4zm-10.6-2.8c.2 0 .4-.1.5-.2s.2-.3.2-.5c0-.9.2-1.7.7-2.5.1-.2.1-.4.1-.6-.1-.2-.2-.4-.4-.5s-.4-.1-.6-.1-.4.2-.5.4c-.6 1-.9 2.1-.9 3.2 0 .2.1.4.2.5.3.2.5.3.7.3zm2.6 5c1 .6 2.1.9 3.2.9.2 0 .4-.1.5-.2.1-.1.2-.3.2-.5s-.1-.4-.2-.5c-.1-.2-.3-.3-.5-.3-.9 0-1.7-.2-2.5-.7-.2-.1-.4-.1-.6-.1-.2.1-.4.2-.5.4-.1.2-.1.4-.1.6.2.2.3.3.5.4zm3.3-10.8c.9 0 1.7.2 2.5.7.2.1.4.1.6.1.2-.1.3-.2.5-.4s.1-.4.1-.6c-.1-.2-.2-.3-.4-.5-1-.6-2.1-.8-3.2-.8-.2 0-.4.1-.5.2s-.2.3-.2.5.1.4.2.5.2.3.4.3zM14 35.7c-3.9 0-7.1-3.2-7.1-7.1s3.2-7.1 7.1-7.1 7.1 3.2 7.1 7.1-3.2 7.1-7.1 7.1zM14 23c-3.1 0-5.6 2.5-5.6 5.6s2.5 5.6 5.6 5.6 5.6-2.5 5.6-5.6S17.1 23 14 23z"/></svg>