<svg class="education" class="/Applications/MAMP/htdocs/stabilize/assets/images/education.svg" xmlns="http://www.w3.org/2000/svg" viewBox="0 0 69.3 48.3"><path d="M68.8 18.1c-5.5-3-11.1-6-16.7-9L35.3.1c-.3-.2-.7-.2-1 0C23.1 6.4 11.8 12.7.5 19c-.3.2-.5.5-.5.9s.2.7.6.9C5.8 23.2 11 25.6 16.3 28v11.5c0 .3.1.5.3.7 2.3 2.3 8.7 7.7 18.3 8h.8c10.3 0 17.3-6.1 19.2-8 .2-.2.3-.4.3-.7v-6.4c0-.6-.4-1-1-1s-1 .4-1 1v6c-2.2 2.1-8.7 7.4-18.2 7.1-8.5-.3-14.3-4.9-16.6-7.1V29c6.1 2.8 12.2 5.7 18.3 8.5.1.1.3.1.4.1.2 0 .3 0 .5-.1l.2-.1c8.3-4.6 16.5-9.3 24.8-13.9v6.9h-2.3c-.2 0-.5.1-.6.4-.1.2 0 .5.1.7l2.9 2.9c.1.1.3.2.4.2s.3-.1.4-.2l2.9-2.9c.2-.2.2-.4.1-.7-.1-.2-.3-.4-.6-.4h-2.2v-7.6c1.7-1 3.4-1.9 5.1-2.9.3-.2.5-.5.5-.9s-.2-.7-.5-.9zM63 32.9l-1.4-1.4h2.8L63 32.9zm-26 2.5c-6.4-3-12.8-6-19.3-8.9C12.8 24.2 8 22 3.2 19.8 13.8 13.9 24.3 8 34.9 2.1 40.3 5 45.8 8 51.2 10.9c5 2.7 10 5.4 15.1 8.1-9.9 5.5-19.6 11-29.3 16.4z" fill="#4859e0"/></svg>