<svg class="energy" class="/Applications/MAMP/htdocs/stabilize/assets/images/energy.svg" xmlns="http://www.w3.org/2000/svg" viewBox="0 0 42.4 63.7"><path style="fill:#4859e0" d="M30.1 52.2h-18c-.4 0-.7-.3-.7-.6L9 38.4c-5.6-4-9-10.4-9-17.2C0 9.5 9.5 0 21.1 0c11.6 0 21.1 9.5 21.1 21.1 0 6.9-3.3 13.3-8.9 17.2l-1.2 6.6c-.4 2.2-.8 4.5-1.2 6.7-.2.4-.5.6-.8.6zm-17.4-1.5h16.7c.4-2 .8-4 1.1-6.1.4-2.3.9-4.6 1.3-6.9 0-.2.1-.4.3-.5 5.3-3.7 8.5-9.7 8.5-16.2 0-10.8-8.8-19.6-19.6-19.6S1.4 10.2 1.4 21c0 6.5 3.2 12.5 8.6 16.2.2.1.3.3.3.5l2.4 13zm16 4.5H13.5c-.4 0-.8-.3-.8-.8s.3-.8.8-.8h15.2c.4 0 .8.3.8.8s-.4.8-.8.8zm-1.9 2.7H15.4c-.4 0-.8-.3-.8-.8s.3-.8.8-.8h11.5c.4 0 .8.3.8.8s-.4.8-.9.8zm-5.7 5.8c-2.4 0-4.3-1.5-4.3-3.4 0-.4.3-.8.8-.8s.8.3.8.8c0 1 1.3 1.9 2.8 1.9 1.5 0 2.8-.9 2.8-1.9 0-.4.3-.8.8-.8s.8.3.8.8c-.2 1.9-2.1 3.4-4.5 3.4z"/><path style="fill:#4859e0" d="M18.8 44h-.2c-.4-.1-.6-.6-.5-1 1.7-4.9 3.3-9.7 4.9-14.6h-5c-.2 0-.5-.1-.6-.3-.1-.2-.2-.5-.1-.7 2-5.3 3.9-10.6 5.9-15.9l.3-.9c.1-.4.6-.6 1-.4.4.1.6.6.4 1l-.3.8c-1.8 5-3.7 10-5.5 14.9h5c.2 0 .5.1.6.3.1.2.2.4.1.7-1.7 5.2-3.5 10.4-5.2 15.6-.2.3-.4.5-.8.5z"/></svg>