<svg class="government" xmlns="http://www.w3.org/2000/svg" viewBox="0 0 54.6 50.7"><path d="M53 41h-5.5V21.8h3.6c.8 0 1.5-.7 1.5-1.5v-3.6c0-.3-.2-.6-.4-.8-.1-.1-.3-.2-.4-.4l-.2-.2L27.6.1c-.3-.2-.8-.2-1.1 0L3.1 15.4c-.1 0-.1.1-.2.1l-.2.2-.3.3c-.2.2-.3.5-.3.8v3.6c0 .8.7 1.5 1.5 1.5h3.5V41H1.7c-1 0-1.7.7-1.7 1.6V49c0 .9.7 1.7 1.7 1.7H53c.9 0 1.7-.8 1.7-1.7v-6.4c-.1-.9-.8-1.6-1.7-1.6zm-7.5 0H34.9V21.8h10.6V41zM32.9 21.8V41H21.7V21.8h11.2zM4.1 17.1l.1-.1c7.6-4.9 15.2-9.9 22.9-14.8L50.4 17l.2.2v2.7H4.1v-2.8zm5.1 4.7h10.6V41H9.2V21.8zm43.4 26.9H2V43h50.6v5.7z" fill="#4859e0"/></svg>