<svg version="1.1"
	 xmlns="http://www.w3.org/2000/svg" xmlns:xlink="http://www.w3.org/1999/xlink" xmlns:a="http://ns.adobe.com/AdobeSVGViewerExtensions/3.0/"
	 x="0px" y="0px" width="594.4px" height="476.4px" viewBox="0 0 594.4 476.4" style="enable-background:new 0 0 594.4 476.4;"
	 xml:space="preserve">
<style type="text/css">
	.st0{fill:#A7A5A5;}
	.st1{fill:#4859E0;}
	.st2{fill:#FFFFFF;}
</style>
<defs>
</defs>
<g>
	<path class="st0" d="M224.7,87.7l224.7,388.7H0L224.7,87.7z M224.7,94.2L5.6,473.1h438.1L224.7,94.2"/>
</g>
<g>
	<polygon class="st1" points="290.7,60.6 515.4,449.3 66,449.3 	"/>
</g>
<g>
	<path class="st0" d="M369.7,0l224.7,388.7H145.1L369.7,0z M369.7,6.5l-219,378.9h438.1L369.7,6.5"/>
</g>
<g>
	<path class="st2" d="M288.7,340.6h-33.4v-33.4h33.4V340.6z M257.3,338.6h29.4v-29.4h-29.4V338.6z"/>
</g>
<g>
	<path class="st2" d="M356.3,340.4h-33.4V307h33.4V340.4z M324.9,338.4h29.4V309h-29.4V338.4z"/>
</g>
<g>
	<path class="st2" d="M322.9,270h-33.4v-33.4h33.4V270z M291.5,268h29.4v-29.4h-29.4V268z"/>
</g>
<g>
	<path class="st2" d="M310.2,296.2h-8v-8h8V296.2z M304.3,294.2h4v-4h-4V294.2z"/>
</g>
<g>
	<rect x="272.5" y="291.8" class="st2" width="30.7" height="2"/>
</g>
<g>
	<rect x="309.2" y="291.8" class="st2" width="30.7" height="2"/>
</g>
<g>
	<rect x="305.2" y="269" class="st2" width="2" height="20.2"/>
</g>
<g>
	<rect x="271" y="292.1" class="st2" width="2" height="15.9"/>
</g>
<g>
	<rect x="338.6" y="292.2" class="st2" width="2" height="15.8"/>
</g>
</svg>
