<svg class="implementation" xmlns="http://www.w3.org/2000/svg" viewBox="0 0 132.8 145.7">
<g>
	<path style="fill:#A7A5A5;" d="M3.1,15.4h123.5c-1.3,1.3-2.6,2.6-3.9,3.8c-2.3,2.2-4.5,4.5-6.8,6.7l2.1,2.1c2.3-2.2,4.5-4.5,6.8-6.7
		c2.2-2.2,4.5-4.5,6.8-6.7l1.1-1.1l-1.2-1.1c-2.3-2.1-4.7-4.2-7-6.3c-2.3-2.1-4.6-4.1-6.9-6.2l-2,2.2c2.3,2.1,4.6,4.2,6.9,6.2
		c1.5,1.3,2.9,2.6,4.4,4H0.1v80.4h3V15.4z"/>
	<path style="fill:#A7A5A5;" d="M129.6,130.3H6.2c1.3-1.3,2.6-2.6,3.9-3.9c2.3-2.2,4.5-4.5,6.8-6.7l-2.1-2.1c-2.3,2.2-4.5,4.4-6.8,6.7
		c-2.3,2.2-4.5,4.5-6.8,6.7L0,132.1l1.2,1.1c2.3,2.1,4.6,4.2,6.9,6.2c2.3,2.1,4.7,4.2,7,6.3l2-2.2c-2.3-2.1-4.7-4.2-7-6.3
		c-1.5-1.3-2.9-2.6-4.3-3.9h126.8V52.9h-3V130.3z"/>
	<path style="fill:#A7A5A5;" d="M105.1,77.8v-3H94.8L81.6,52l7.1-8.3l-2.3-2L79.3,50H51.8l-7.1-8.3l-2.3,2l6.7,7.8L35.7,74.8H25.4v3h10.3
		l13.5,23.6l-6.8,7.9l2.3,2l7.3-8.5l-0.1-0.1h27.3l-0.1,0.1l7.3,8.5l2.3-2l-7.2-8.4l13.3-23.1H105.1z M78.7,99.7h-27L38.3,76.3
		L51.8,53h27l13.4,23.3L78.7,99.7z"/>
</g>
</svg>
