<svg class="information" class="/Applications/MAMP/htdocs/stabilize/assets/images/information.svg" xmlns="http://www.w3.org/2000/svg" viewBox="0 0 55.1 43.7"><path style="fill:#4859e0" d="M54.3 7.2h-25C28.1 6.1 27 5 25.8 3.8c-1.2-1.2-2.5-2.4-3.7-3.6-.1-.1-.3-.2-.5-.2h-16c-.4 0-.8.3-.8.8v4.1h-4c-.5-.1-.8.3-.8.7V43c0 .4.3.8.8.8h48.7c.4 0 .8-.3.8-.8v-4.1h4.1c.4 0 .8-.3.8-.8V7.9c-.1-.4-.5-.7-.9-.7zm-5.6 31.7v3.4H1.5v-36h15c1.2 1.1 2.3 2.2 3.5 3.4 1.2 1.2 2.5 2.4 3.7 3.6.1.1.3.2.5.2h24.6v25.4zm4.9-1.5h-3.3V12.8c0-.4-.3-.8-.8-.8H24.4c-1.2-1.1-2.3-2.2-3.5-3.4-1.2-1.2-2.5-2.4-3.7-3.6-.1-.1-.3-.2-.5-.2H6.3V1.5h15c1.2 1.1 2.3 2.2 3.5 3.4 1.2 1.2 2.5 2.4 3.7 3.6.1.1.3.2.5.2h24.6v28.7z"/><path style="fill:#4859e0" d="M6.9 40.3H4.5c-.3 0-.5-.2-.5-.5v-2.4c0-.3.2-.5.5-.5h2.4c.3 0 .5.2.5.5v2.4c0 .3-.2.5-.5.5zm-1.9-1h1.4v-1.4H5v1.4zm7 1H9.5c-.3 0-.5-.2-.5-.5v-2.4c0-.3.2-.5.5-.5H12c.3 0 .5.2.5.5v2.4c0 .3-.3.5-.5.5zm-2-1h1.4v-1.4H10v1.4zm6.7 1h-2.4c-.3 0-.5-.2-.5-.5v-2.4c0-.3.2-.5.5-.5h2.4c.3 0 .5.2.5.5v2.4c0 .3-.2.5-.5.5zm-1.9-1h1.4v-1.4h-1.4v1.4z"/></svg>