<svg class="insurance" class="/Applications/MAMP/htdocs/stabilize/assets/images/insurance.svg" xmlns="http://www.w3.org/2000/svg" viewBox="0 0 47.5 57.7"><path d="M25.7 2.5c-.4 0-.8-.1-1.2-.1V.8c0-.4-.3-.8-.8-.8s-.7.3-.7.8v1.7C10.5 2.8.2 13.2 0 25.7c0 .3.2.6.5.7.3.1.7 0 .9-.3.4-.6 2.9-3.8 7.1-3.8 4.5.1 6.8 3.8 6.8 3.9l.2.2h.1c.1.1.2.1.3.1h.1c.1 0 .2 0 .3-.1h.1l.2-.2c1.4-2.3 3.8-3.8 6.3-4.1v13.1c0 .4.3.8.8.8s.8-.3.8-.8V22.1c3.8.3 5.9 3.2 6.5 4 .1.2.4.3.6.3.2 0 .5-.1.6-.3 1.8-2.7 4.9-4.1 7.9-3.8 3.5.3 5.6 2.9 6.1 3.7.2.3.5.4.8.3.3-.1.5-.4.5-.7-.3-12.2-9.9-22.1-21.8-23.1zM15.1 23.7c-1.3-1.3-3.5-2.8-6.6-2.8h-.2c-3 0-5.3 1.5-6.6 2.7 1.2-9.9 8.9-17.8 18.6-19.4-1.3 2.2-2.4 4.5-3.3 7-1.3 4-2 8.2-1.9 12.5zm15.6 0c-1.3-1.3-3.3-2.8-6.3-3-2.9-.2-5.8 1-7.9 3.2-.1-4.2.6-8.3 1.9-12.1.9-2.7 2.2-5.3 3.7-7.6.5 0 1-.1 1.5-.1h.1c.5 0 .9 0 1.4.1 1.5 2.3 2.8 4.8 3.7 7.4 1.4 3.7 2 7.8 1.9 12.1zm9.5-2.8c-2.9-.3-5.8.8-8 2.8.1-4.4-.6-8.8-2-12.9-.8-2.3-1.9-4.6-3.2-6.7 9.8 1.5 17.6 9.4 18.8 19.3-1.2-1-3.1-2.3-5.6-2.5zm-8.1 30.9c-.4 0-.7.3-.7.8 0 1-.4 1.9-1.1 2.6-.7.7-1.6 1-2.5 1-1 0-1.8-.4-2.5-1.2-.7-.7-1-1.7-.9-2.7V39.7c0-.4-.3-.8-.8-.8s-.8.3-.8.8v12.6c-.1 1.4.4 2.8 1.3 3.8s2.2 1.6 3.6 1.7h.1c1.3 0 2.6-.5 3.5-1.5 1-1 1.5-2.3 1.5-3.7.1-.4-.3-.8-.7-.8z" fill="#4859e0"/></svg>