<svg class="life-sciences" class="/Applications/MAMP/htdocs/stabilize/assets/images/life-sciences.svg" xmlns="http://www.w3.org/2000/svg" viewBox="0 0 58.7 61.7"><path style="fill:#4859e0" d="M58.3 19c-.4-.3-1-.2-1.3.2l-1.8 2.4L36.3 6.1c-.4-.3-1-.3-1.3.1-.3.4-.3 1 .1 1.3l19 15.5c-2.7 3-5.6 5.3-8.7 6.6L40 25.3c-.4-.3-1-.3-1.3.1-.3.4-.3 1 .1 1.3l4.5 3.7c-.7.2-1.3.4-2 .5-1.7.3-3.4.5-5.2.3-.5 0-.9.3-1 .8s.3.9.8 1c.5 0 1 .1 1.6.1 1.4 0 2.7-.1 4.1-.4 5.2-1.1 10-4.2 14.3-9.2.8-1 1.6-2 2.4-3.1.5-.5.4-1.1 0-1.4z"/><path style="fill:#4859e0" d="M26.5 14.2c.5-1.5 1.1-3 2-4.5l18.2 14.9c.2.1.4.2.6.2.3 0 .5-.1.7-.3.3-.4.3-1-.1-1.3l-18.4-15C31 6 32.9 3.8 35.3 1.6c.4-.3.4-.9.1-1.3-.4-.4-1-.4-1.4-.1-5 4.5-8.1 9.2-9.4 14v.1c-.4 1.4-.6 2.8-.7 4.2-.2 5.1 1.7 8.8 3.5 12.4 1.8 3.6 3.5 6.9 3.5 11.6 0 3-.7 5.9-2.1 8.9l-10.6-8.7c-.4-.3-1-.3-1.3.1-.3.4-.3 1 .1 1.3l10.9 9c-.7 1.3-1.6 2.6-2.5 3.9L4 39.5C5 38.2 6 37 7 36l5.9 4.8c.2.1.4.2.6.2.3 0 .5-.1.7-.3.3-.4.3-1-.1-1.3l-5.7-4.7c1.5-1.3 3-2.3 4.5-3.1L28 44.1c.2.1.4.2.6.2.3 0 .5-.1.7-.3.3-.4.3-1-.1-1.3L14.7 30.8c.6-.2 1.1-.4 1.7-.5 2-.5 3.9-.6 6-.4.5.1.9-.3 1-.8.1-.5-.3-.9-.8-1-2.3-.3-4.5-.1-6.7.4-1.2.3-2.3.7-3.4 1.2h-.1c-2.2 1-4.2 2.5-6.2 4.4-2.1 2.2-4.2 4.9-6.1 8-.3.4-.1 1 .3 1.2.1.1.3.1.5.1.3 0 .6-.2.8-.4.4-.7.9-1.4 1.3-2l21.2 17.4c-.5.6-1.1 1.2-1.7 1.9-.3.4-.3.9 0 1.3.2.2.4.2.6.2.2 0 .5-.1.7-.3 5.8-6.2 8.7-12.5 8.8-18.9 0-5.1-1.9-8.9-3.7-12.4-1.8-3.6-3.5-6.9-3.3-11.5 0-.8.1-1.6.3-2.5l7.5 6.1c.2.1.4.2.6.2.3 0 .5-.1.7-.3.3-.4.3-1-.1-1.3l-8.1-6.7z"/></svg>