<svg class="loading" version="1.1"
	 xmlns="http://www.w3.org/2000/svg" xmlns:xlink="http://www.w3.org/1999/xlink" xmlns:a="http://ns.adobe.com/AdobeSVGViewerExtensions/3.0/"
	 x="0px" y="0px" viewBox="0 0 536 24.7" style="enable-background:new 0 0 536 24.7;"
	 xml:space="preserve">
<rect width="536" height="24.7"/>
<g>
	<rect x="1.8" y="1.4" class="st0" width="10.4" height="21.9"/>
	<rect x="15.1" y="1.4" class="st0" width="10.4" height="21.9"/>
	<rect x="28.5" y="1.4" class="st0" width="10.4" height="21.9"/>
	<rect x="41.9" y="1.4" class="st0" width="10.4" height="21.9"/>
	<rect x="55.3" y="1.4" class="st0" width="10.4" height="21.9"/>
	<rect x="68.7" y="1.4" class="st0" width="10.4" height="21.9"/>
	<rect x="82.1" y="1.4" class="st0" width="10.4" height="21.9"/>
	<rect x="95.4" y="1.4" class="st0" width="10.4" height="21.9"/>
	<rect x="108.8" y="1.4" class="st0" width="10.4" height="21.9"/>
	<rect x="122.2" y="1.4" class="st0" width="10.4" height="21.9"/>
	<rect x="135.6" y="1.4" class="st0" width="10.4" height="21.9"/>
	<rect x="149" y="1.4" class="st0" width="10.4" height="21.9"/>
	<rect x="162.4" y="1.4" class="st0" width="10.4" height="21.9"/>
	<rect x="175.8" y="1.4" class="st0" width="10.4" height="21.9"/>
	<rect x="189.1" y="1.4" class="st0" width="10.4" height="21.9"/>
	<rect x="202.5" y="1.4" class="st0" width="10.4" height="21.9"/>
	<rect x="215.9" y="1.4" class="st0" width="10.4" height="21.9"/>
	<rect x="229.3" y="1.4" class="st0" width="10.4" height="21.9"/>
	<rect x="242.7" y="1.4" class="st0" width="10.4" height="21.9"/>
	<rect x="256.1" y="1.4" class="st0" width="10.4" height="21.9"/>
	<rect x="269.4" y="1.4" class="st0" width="10.4" height="21.9"/>
	<rect x="282.8" y="1.4" class="st0" width="10.4" height="21.9"/>
	<rect x="296.2" y="1.4" class="st0" width="10.4" height="21.9"/>
	<rect x="309.6" y="1.4" class="st0" width="10.4" height="21.9"/>
	<rect x="323" y="1.4" class="st0" width="10.4" height="21.9"/>
	<rect x="336.4" y="1.4" class="st0" width="10.4" height="21.9"/>
	<rect x="349.8" y="1.4" class="st0" width="10.4" height="21.9"/>
	<rect x="363.1" y="1.4" class="st0" width="10.4" height="21.9"/>
	<rect x="376.5" y="1.4" class="st0" width="10.4" height="21.9"/>
	<rect x="389.9" y="1.4" class="st0" width="10.4" height="21.9"/>
	<rect x="403.3" y="1.4" class="st0" width="10.4" height="21.9"/>
	<rect x="416.7" y="1.4" class="st0" width="10.4" height="21.9"/>
	<rect x="430.1" y="1.4" class="st0" width="10.4" height="21.9"/>
	<rect x="443.4" y="1.4" class="st0" width="10.4" height="21.9"/>
	<rect x="456.8" y="1.4" class="st0" width="10.4" height="21.9"/>
	<rect x="470.2" y="1.4" class="st0" width="10.4" height="21.9"/>
	<rect x="483.6" y="1.4" class="st0" width="10.4" height="21.9"/>
	<rect x="497" y="1.4" class="st0" width="10.4" height="21.9"/>
	<rect x="510.4" y="1.4" class="st0" width="10.4" height="21.9"/>
	<rect x="523.8" y="1.4" class="st0" width="10.4" height="21.9"/>
</g>
</svg>
