<svg class="logo" xmlns="http://www.w3.org/2000/svg" viewBox="0 0 261.2 39"><path style="fill:#fff" d="M0 2.5h47.5v10.3H0z"/><path style="fill:#4859e0" d="M36.3 6h7.5v3.4h-7.5z"/><path style="fill:#fff" d="M0 15.3h47.5v10.3H0z"/><path style="fill:#4859e0" d="M36.3 18.8h7.5v3.4h-7.5z"/><path style="fill:#fff" d="M0 28h47.5v10.3H0z"/><path style="fill:#4859e0" d="M36.3 31.4h7.5v3.4h-7.5z"/><path style="fill:#fff" d="M62 37.5c-2.1-1-3.8-2.2-4.9-3.8s-1.7-3.2-1.8-5.1c0-.3.1-.5.3-.8.2-.2.5-.3.8-.3H61c.4 0 .7.1.9.3.2.2.5.4.6.7.3 1.2 1.1 2.2 2.3 3 1.2.8 2.8 1.2 4.9 1.2 2.3 0 4.1-.4 5.3-1.2 1.2-.8 1.8-2 1.8-3.4 0-1-.3-1.7-.9-2.4-.6-.6-1.5-1.2-2.7-1.7-1.2-.5-3-1-5.4-1.7-3.9-1-6.8-2.3-8.7-3.9-1.8-1.6-2.8-3.9-2.8-7 0-2 .5-3.9 1.6-5.5s2.6-2.9 4.6-3.8c2-.9 4.3-1.4 6.9-1.4 2.8 0 5.2.5 7.2 1.5s3.6 2.3 4.6 3.8c1 1.5 1.6 3.1 1.7 4.6 0 .3-.1.5-.3.8-.2.2-.5.3-.8.3H77c-.7 0-1.2-.3-1.5-1-.2-1.1-.8-2.1-2-2.8-1.1-.5-2.5-.9-4.1-.9-1.8 0-3.3.4-4.3 1.1-1.1.7-1.6 1.8-1.6 3.2 0 1 .3 1.7.8 2.4.5.6 1.4 1.2 2.5 1.7s2.8 1 5 1.6c3 .7 5.3 1.5 7.1 2.4 1.8.9 3 2 3.9 3.3.8 1.3 1.2 3 1.2 5.1 0 2.3-.6 4.3-1.8 5.9-1.2 1.7-2.9 3-5 3.8-2.2 1-4.7 1.5-7.5 1.5-3 0-5.6-.5-7.7-1.5zm32-1.6c-1.5-1.7-2.3-4.1-2.3-7.4V16.6h-4c-.3 0-.6-.1-.9-.4-.2-.2-.3-.5-.3-.9v-3.1c0-.4.1-.7.3-.9.2-.2.5-.4.9-.4h4V2.2c0-.4.1-.7.4-.9.2-.2.5-.3.8-.3H97c.4 0 .7.1.9.3.2.2.3.5.3.9V11h6.3c.3 0 .6.1.9.4.2.2.4.5.4.9v3.1c0 .4-.1.7-.4.9-.2.2-.5.4-.9.4h-6.3V28c0 1.5.2 2.7.8 3.4.5.8 1.3 1.2 2.5 1.2h3.5c.4 0 .7.1.9.3.2.2.3.5.3.9v3.3c0 .4-.1.7-.3.9-.2.2-.5.4-.9.4h-4.1c-3.1 0-5.4-.8-6.9-2.5zm20.4 2c-1.4-.7-2.5-1.7-3.4-2.9-.8-1.2-1.2-2.6-1.2-4.1 0-2.4.9-4.3 2.8-5.8 1.8-1.5 4.4-2.5 7.6-3L127 21v-1.1c0-1.5-.4-2.7-1.1-3.4-.7-.8-1.9-1.2-3.5-1.2-1.1 0-2 .2-2.7.6-.7.4-1.2.9-1.6 1.3-.4.4-.7.7-.8.9-.1.4-.4.6-.8.6h-3.9c-.3 0-.6-.1-.8-.3-.2-.2-.3-.5-.3-.8 0-.9.4-1.9 1.2-3 .8-1.1 2-2.1 3.6-2.9 1.6-.8 3.7-1.2 6.1-1.2 3.9 0 6.8.9 8.6 2.8 1.8 1.9 2.7 4.3 2.7 7.3v16.6c0 .4-.1.7-.3.9-.2.2-.5.4-.9.4h-4.2c-.3 0-.6-.1-.9-.4-.2-.2-.4-.5-.4-.9v-2.1c-.7 1.1-1.8 2.1-3.1 2.8-1.3.7-3 1.1-5 1.1-1.5 0-3.1-.4-4.5-1.1zm10.9-5.9c1.2-1.3 1.8-3.1 1.8-5.5v-1.1l-5 .8c-3.8.6-5.8 2-5.8 4.1 0 1.1.4 2 1.3 2.6.9.6 1.9.9 3.2.9 1.8.1 3.3-.6 4.5-1.8zm21.3 3.2v2c0 .4-.1.7-.3.9-.2.2-.5.4-.9.4h-4c-.3 0-.6-.1-.9-.4-.2-.2-.3-.5-.3-.9v-35c0-.4.1-.7.3-.9.2-.2.5-.3.9-.3h4.3c.4 0 .7.1.9.3.2.2.3.5.3.9v11.7c1.9-2.3 4.4-3.5 7.7-3.5 3.4 0 6 1.2 7.8 3.5 1.8 2.3 2.8 5.3 2.9 9.1v3.4c-.1 3.8-1.1 6.8-2.9 9.1-1.8 2.3-4.4 3.4-7.8 3.4-3.5.1-6.1-1.2-8-3.7zm11.8-8.9v-3.2c-.2-4.7-2.1-7-5.7-7-1.8 0-3.2.6-4.2 1.8-1 1.2-1.5 2.7-1.6 4.5v4.1c.1 1.9.6 3.5 1.5 4.8.9 1.3 2.4 2 4.3 2 3.5-.1 5.4-2.4 5.7-7zM171 6.1c-.2-.2-.3-.5-.3-.9V1.3c0-.4.1-.7.3-1 .2-.2.5-.4.9-.4h4.6c.4 0 .7.1.9.4.2.2.4.6.4 1v3.9c0 .4-.1.7-.4.9-.2.2-.5.4-.9.4h-4.6c-.4-.1-.7-.2-.9-.4zm.2 32c-.2-.2-.4-.5-.4-.9v-25c0-.4.1-.7.4-.9.2-.2.5-.3.8-.3h4.3c.3 0 .6.1.8.4.2.2.4.5.4.9v24.9c0 .4-.1.7-.4.9-.2.2-.5.4-.8.4H172c-.3-.1-.6-.2-.8-.4zm13.3 0c-.2-.2-.3-.5-.3-.9v-35c0-.4.1-.7.3-.9.2-.2.5-.3.9-.3h4.2c.4 0 .7.1.9.3.2.2.3.5.3.9v35c0 .4-.1.7-.3.9-.2.2-.5.4-.9.4h-4.2c-.4-.1-.7-.2-.9-.4zm13-32c-.2-.2-.3-.5-.3-.9V1.3c0-.4.1-.7.3-1 .2-.2.5-.4.9-.4h4.6c.4 0 .7.1.9.4.2.2.4.6.4 1v3.9c0 .4-.1.7-.4.9-.2.2-.5.4-.9.4h-4.6c-.4-.1-.6-.2-.9-.4zm.2 32c-.2-.2-.4-.5-.4-.9v-25c0-.4.1-.7.4-.9.2-.2.5-.3.8-.3h4.3c.3 0 .6.1.8.4.2.2.4.5.4.9v24.9c0 .4-.1.7-.4.9-.2.2-.5.4-.8.4h-4.3c-.3-.1-.5-.2-.8-.4zm12 0c-.2-.2-.4-.5-.4-.9v-3.1c0-.3.1-.6.2-.8.1-.2.3-.5.5-.9l12.8-15.8h-11.9c-.3 0-.6-.1-.9-.4-.2-.3-.3-.6-.3-.9v-3c0-.4.1-.7.3-.9.2-.2.5-.4.9-.4H230c.3 0 .6.1.8.4.2.2.4.5.4.9v3.3c0 .3-.1.6-.2.8-.1.3-.3.5-.5.8L218 32.8h13c.3 0 .6.1.8.4.2.2.4.6.4 1v3c0 .4-.1.7-.3.9-.2.2-.5.4-.9.4h-20.5c-.3-.1-.6-.2-.8-.4zm30.3-2.5c-2.2-2.3-3.3-5.5-3.5-9.6v-1.3c0-4.4 1.1-7.9 3.3-10.4 2.2-2.5 5.2-3.8 9.1-3.8 4 0 7 1.3 9.2 3.8 2.2 2.5 3.2 5.9 3.2 10.1v1.1c0 .4-.1.7-.3.9-.2.2-.5.4-.9.4h-16.6v.4c.1 2 .6 3.6 1.5 4.9 1 1.3 2.3 1.9 3.9 1.9 1.9 0 3.5-.8 4.7-2.4.3-.4.5-.6.7-.7s.5-.1.9-.1h4.4c.3 0 .6.1.8.3.2.2.3.4.3.7 0 .8-.5 1.8-1.4 3-1 1.1-2.3 2.1-4.1 3-1.8.8-3.8 1.3-6.2 1.3-3.8-.1-6.8-1.3-9-3.5zm14.3-13.3v-.1c0-2.1-.5-3.7-1.5-5-1-1.2-2.3-1.9-4-1.9s-3 .6-4 1.9c-1 1.3-1.5 2.9-1.5 5v.1h11z"/></svg>