<svg class="search-icon" xmlns="http://www.w3.org/2000/svg" viewBox="0 0 42.5 44.4"><path d="M41.6 39.3L34 31.7c1.3-1.5 2.3-3.2 3.1-5 1-2.4 1.5-4.8 1.5-7.4 0-2.5-.5-5-1.5-7.4-1-2.4-2.4-4.5-4.2-6.3-1.8-1.8-3.9-3.2-6.3-4.2-4.7-1.9-10.1-1.9-14.7 0-2.4 1-4.5 2.4-6.3 4.2-1.8 1.8-3.2 3.9-4.2 6.3s-1.5 4.8-1.5 7.4c0 2.5.5 5 1.5 7.4 1 2.4 2.4 4.5 4.2 6.3 1.8 1.8 3.9 3.2 6.3 4.2s4.8 1.5 7.4 1.5c2.5 0 5-.5 7.4-1.5 1-.4 1.9-.9 2.8-1.5.1.1.1.2.2.2l7.7 7.7c.6.6 1.4.9 2.1.9s1.5-.3 2.1-.9c1.2-1.2 1.2-3.1 0-4.3zm-17.3-7.8c-3.2 1.3-6.9 1.3-10.2 0-1.6-.7-3.1-1.6-4.3-2.9C8.6 27.4 7.7 26 7 24.3c-.7-1.6-1-3.3-1-5.1s.3-3.5 1-5.1c.7-1.6 1.6-3.1 2.9-4.3 1.2-1.2 2.7-2.2 4.3-2.9 1.6-.7 3.3-1 5.1-1s3.5.3 5.1 1c1.6.7 3.1 1.6 4.3 2.9 1.2 1.2 2.2 2.7 2.9 4.3.7 1.6 1 3.3 1 5.1s-.3 3.5-1 5.1c-.7 1.6-1.6 3.1-2.9 4.3-1.3 1.3-2.7 2.3-4.4 2.9z"/></svg>