<svg class="software-development"  xmlns="http://www.w3.org/2000/svg" viewBox="0 0 54.1 41.3"><path style="fill:#4859e0" d="M35.5 32.4c-.2 0-.4-.1-.5-.2-.3-.3-.3-.8 0-1.1 2.3-2.2 4.5-4.4 6.8-6.7l-3-2.7c-1.3-1.2-2.6-2.3-3.9-3.5-.3-.3-.3-.8-.1-1.1.3-.3.8-.3 1.1-.1 1.3 1.2 2.6 2.3 3.9 3.5l3.6 3.3c.2.1.2.3.2.5s-.1.4-.2.6c-2.4 2.4-4.9 4.8-7.3 7.2-.3.2-.4.3-.6.3zm-17 0c-.2 0-.4-.1-.5-.2l-3.7-3.3c-1.3-1.2-2.6-2.3-3.9-3.5-.2-.1-.2-.3-.2-.5s.1-.4.2-.6c2.5-2.4 4.9-4.8 7.3-7.2.3-.3.8-.3 1.1 0 .3.3.3.8 0 1.1-2.2 2.2-4.5 4.4-6.8 6.7 1.1 1 2.2 2 3.3 2.9l3.7 3.3c.3.3.3.8.1 1.1-.2.1-.4.2-.6.2zm32-25.6h-2c-.3 0-.5-.2-.5-.5v-2c0-.3.2-.5.5-.5h2c.3 0 .5.2.5.5v2c0 .3-.2.5-.5.5zm-1.5-1h1v-1h-1v1zm-2.3 1h-2c-.3 0-.5-.2-.5-.5v-2c0-.3.2-.5.5-.5h2c.3 0 .5.2.5.5v2c0 .3-.2.5-.5.5zm-1.5-1h1v-1h-1v1z"/><path style="fill:#4859e0" d="M53.4 41.3H.8c-.5 0-.8-.3-.8-.7V.8C0 .3.3 0 .8 0h52.6c.4 0 .8.3.8.8v39.8c-.1.4-.4.7-.8.7zM1.5 39.8h51.1V1.5H1.5v38.3z"/><path style="fill:#4859e0" d="M53.4 10.4H.8c-.5 0-.8-.3-.8-.8s.3-.8.8-.8h52.6c.4 0 .8.3.8.8s-.4.8-.8.8zM24.1 35.1h-.2c-.4-.1-.6-.5-.5-.9l5.1-19.4c.1-.4.5-.6.9-.5.4.1.6.5.5.9l-5.1 19.4c-.1.3-.4.5-.7.5z"/></svg>