<svg class="stabilize-cloud" xmlns="http://www.w3.org/2000/svg" viewBox="0 0 307.3 310.6" >
<path style="fill:#4859e0" d="M307.3,0h-177v62h177V0z M303.7,3.6v54.8H133.9V3.6H303.7"/>
<path style="fill:#4859e0" d="M307.3,75.7h-177v62h177V75.7z M303.7,79.2v54.8H133.9V79.2H303.7"/>
<path style="fill:#4859e0" d="M307.3,151.3h-177v62h177V151.3z M303.7,154.9v54.8H133.9v-54.8H303.7"/>
<path style="fill:#4859e0" d="M293.1,24.5h-12.9v12.9h12.9V24.5z M290.3,27.4v7.2h-7.2v-7.2H290.3"/>
<path style="fill:#4859e0" d="M293.1,100.2h-12.9v12.9h12.9V100.2z M290.3,103.1v7.2h-7.2v-7.2H290.3"/>
<path style="fill:#4859e0" d="M293.1,175.8h-12.9v12.9h12.9V175.8z M290.3,178.7v7.2h-7.2v-7.2H290.3"/>
<rect x="1.9" y="99.2" style="fill:#fff" width="173.4" height="58.4"/>
<path style="fill:#4859e0" d="M177,97.3H0v62h177V97.3z M173.4,100.9v54.8H3.6v-54.8H173.4"/>
<rect x="1.9" y="174.7" style="fill:#fff" width="173.4" height="58.4"/>
<path style="fill:#4859e0" d="M162.8,121.9h-12.9v12.9h12.9V121.9z M159.9,124.7v7.2h-7.2v-7.2H159.9"/>
<path style="fill:#4859e0" d="M177,248.6H0v62h177V248.6z M173.4,252.2v54.8H3.6v-54.8H173.4"/>
<path style="fill:#4859e0" d="M162.8,273.2h-12.9v12.9h12.9V273.2z M159.9,276v7.2h-7.2V276H159.9"/>
<path style="fill:#4859e0" d="M177,173H0v62h177V173z M173.4,176.6v54.8H3.6v-54.8H173.4"/>
<path style="fill:#4859e0" d="M162.8,197.5h-12.9v12.9h12.9V197.5z M159.9,200.4v7.2h-7.2v-7.2H159.9"/>
</svg>
