<svg viewBox="0 0 314 238.5" xmlns="http://www.w3.org/2000/svg">
<g>
	<path style="fill:#4859e0" d="M228.9,119.9c-7.4-6.6-14.8-13.2-22.1-19.8l-2.7,3c7.4,6.6,14.7,13.2,22.1,19.8c6.9,6.2,13.8,12.3,20.6,18.5
		c-13.8,13.7-28,27.6-41.7,41.1l2.8,2.9c14.2-14,28.9-28.4,43.3-42.6l1.5-1.5l-1.6-1.4C243.7,133.1,236.3,126.5,228.9,119.9z"/>
	<path style="fill:#4859e0" d="M65.2,144c13.7-13.5,27.9-27.4,41.7-41.1l-2.8-2.8c-14.2,14.1-28.8,28.4-42.9,42.3l-1.8,1.8l1.6,1.4
		c7.4,6.6,14.8,13.3,22.2,19.9c7.4,6.6,14.8,13.3,22.2,19.9l2.7-3c-7.4-6.6-14.8-13.3-22.2-19.9C78.9,156.3,72,150.2,65.2,144z"/>
	<path style="fill:#4859e0" d="M295,22.9h-12.1v12.1H295V22.9z M292.3,32.3h-6.7v-6.7h6.7V32.3z"/>
	<path style="fill:#4859e0" d="M272.8,22.9h-12.1v12.1h12.1V22.9z M270.1,32.3h-6.7v-6.7h6.7V32.3z"/>
	<path style="fill:#4859e0" d="M0,0v238.5h314V0H0z M310,4v48.4H4V4H310z M4,234.5V56.4h306v178.1H4z"/>
	<rect x="152.4" y="83.5" transform="matrix(-0.9667 -0.2558 0.2558 -0.9667 267.1554 319.9621)" style="fill:#4859e0" width="4" height="118.3"/>
</g>
</svg>
