<?xml version="1.0" encoding="UTF-8" standalone="no"?>
<svg
   xmlns:dc="http://purl.org/dc/elements/1.1/"
   xmlns:cc="http://creativecommons.org/ns#"
   xmlns:rdf="http://www.w3.org/1999/02/22-rdf-syntax-ns#"
   xmlns:svg="http://www.w3.org/2000/svg"
   xmlns="http://www.w3.org/2000/svg"
   xmlns:sodipodi="http://sodipodi.sourceforge.net/DTD/sodipodi-0.dtd"
   xmlns:inkscape="http://www.inkscape.org/namespaces/inkscape"
   inkscape:version="1.0 (4035a4fb49, 2020-05-01)"
   sodipodi:docname="Stabilize_Cloud-Coming_Soon.svg"
   version="1.1"
   viewBox="0 0 286.06 282.39"
   data-name="Layer 1"
   id="Layer_1">
  <metadata
     id="metadata47">
    <rdf:RDF>
      <cc:Work
         rdf:about="">
        <dc:format>image/svg+xml</dc:format>
        <dc:type
           rdf:resource="http://purl.org/dc/dcmitype/StillImage" />
      </cc:Work>
    </rdf:RDF>
  </metadata>
  <sodipodi:namedview
     inkscape:current-layer="Layer_1"
     inkscape:window-maximized="1"
     inkscape:window-y="-9"
     inkscape:window-x="-9"
     inkscape:cy="182.44748"
     inkscape:cx="139.5121"
     inkscape:zoom="2"
     showgrid="false"
     id="namedview45"
     inkscape:window-height="871"
     inkscape:window-width="1513"
     inkscape:pageshadow="2"
     inkscape:pageopacity="0"
     guidetolerance="10"
     gridtolerance="10"
     objecttolerance="10"
     borderopacity="1"
     bordercolor="#666666"
     pagecolor="#ffffff" />
  <defs
     id="defs4">
    <rect
       id="rect1146"
       height="85.927247"
       width="175.88864"
       y="173.06474"
       x="79.069204" />
    <style
       id="style2">.cls-1{opacity:0.95;}.cls-2{fill:#4859e0;}.cls-3{fill:#fff;}</style>
  </defs>
  <title
     id="title6">Stabilize_Icons</title>
  <g
     id="g10"
     class="cls-1">
    <path
       id="path8"
       d="M 248.79,36 V 74.18 H 130.48 V 36 h 118.31 m 2.5,-2.5 H 128 V 76.68 H 251.29 V 33.46 Z"
       class="cls-2" />
  </g>
  <g
     id="g14"
     class="cls-1">
    <path
       id="path12"
       d="m 248.79,88.64 v 38.21 H 130.48 V 88.64 h 118.31 m 2.5,-2.5 H 128 v 43.21 h 123.29 z"
       class="cls-2" />
  </g>
  <g
     id="g18"
     class="cls-1">
    <path
       id="path16"
       d="M248.79,141.31v38.22H130.48V141.31H248.79m2.5-2.5H128V182H251.29V138.81Z"
       class="cls-2" />
  </g>
  <path
     id="path20"
     d="M239.37,52.57v5h-5v-5h5m2-2h-9v9h9v-9Z"
     class="cls-2" />
  <path
     id="path22"
     d="M239.37,105.24v5h-5v-5h5m2-2h-9v9h9v-9Z"
     class="cls-2" />
  <path
     id="path24"
     d="M239.37,157.92v5h-5v-5h5m2-2h-9v9h9v-9Z"
     class="cls-2" />
  <rect
     id="rect26"
     height="40.71"
     width="120.81"
     y="102.53"
     x="38.46"
     class="cls-3" />
  <path
     id="path28"
     d="M158,103.78V142H39.71V103.78H158m2.5-2.5H37.21v43.21H160.52V101.28Z"
     class="cls-2" />
  <rect
     id="rect30"
     height="40.71"
     width="120.81"
     y="155.21"
     x="38.46"
     class="cls-3" />
  <path
     id="path32"
     d="M158,156.46v38.21H39.71V156.46H158m2.5-2.5H37.21v43.21H160.52V154Z"
     class="cls-2" />
  <rect
     id="rect34"
     height="40.71"
     width="120.81"
     y="207.88"
     x="38.46"
     class="cls-3" />
  <path
     id="path36"
     d="M158,209.13v38.22H39.71V209.13H158m2.5-2.5H37.21v43.22H160.52V206.63Z"
     class="cls-2" />
  <path
     id="path38"
     d="M148.6,120.39v5h-5v-5h5m2-2h-9v9h9v-9Z"
     class="cls-2" />
  <path
     id="path40"
     d="M148.6,173.06v5h-5v-5h5m2-2h-9v9h9v-9Z"
     class="cls-2" />
  <path
     id="path42"
     d="M148.6,225.74v5h-5v-5h5m2-2h-9v9h9v-9Z"
     class="cls-2" />
  <rect
     transform="rotate(-35.426084)"
     y="158.7296"
     x="-57.686989"
     height="76.2453"
     width="189.20131"
     id="rect49"
     style="fill:#ffffff;fill-opacity:0.99999994;fill-rule:evenodd;stroke:#ff2a2a;stroke-width:2;stroke-linejoin:round;stroke-miterlimit:4;stroke-dasharray:none;stroke-opacity:1" />
  <text
     transform="rotate(-35.3,76.422241,188.37282)"
     style="font-style:normal;font-variant:normal;font-weight:normal;font-stretch:normal;font-size:26.6667px;line-height:1.25;font-family:Rubik;-inkscape-font-specification:'Rubik, Normal';font-variant-ligatures:normal;font-variant-caps:normal;font-variant-numeric:normal;font-variant-east-asian:normal;white-space:pre;shape-inside:url(#rect1146);fill:#ff0000;fill-opacity:1;stroke:none;"
     id="text1144"
     xml:space="preserve"><tspan
       x="79.068359"
       y="197.4386"><tspan
         style="shape-inside:url(#rect1146)">Coming Soon</tspan></tspan></text>
</svg>
