<svg class="technology-illustration" xmlns="http://www.w3.org/2000/svg" viewBox="0 0 601.7 482.4">

	<polygon class="triangle-01" points="228.1,91.7 452.8,480.4 3.5,480.4 	"/>
	<polygon class="triangle-02" points="294.6,64.6 519.2,453.3 69.9,453.3 	"/>
	<polygon class="triangle-03" points="373.6,4 598.2,392.7 148.9,392.7 	"/>

	<g class="icons">

		<g class="network-stabilization">

			<path d="M344.5,306v-14.8h-0.7v-0.5h-29.7v-3.5h-3v-18.2h15.7v-33.4h-33.4v33.4h15.7v18.2h-2.9v3.5h-29.7v0.4h-1.5v15.1
		h-15.7v33.4h33.4v-33.4h-15.7v-13.5h29.3v2.5h8v-2.5h28.4V306h-15.7v33.4h33.4V306H344.5z M295.4,237.7h29.4v29.4h-29.4V237.7z
		 M290.6,337.7h-29.4v-29.4h29.4V337.7z M312.1,293.3h-4v-4h4V293.3z M358.2,337.4h-29.4V308h29.4V337.4z"/>

		</g>

		<g class="data-transfer">

		 	<path d="M260.5,207.7v-81.1h-2.2v80.8c-1.5-1.5-3-3-4.5-4.6c-2.2-2.2-4.4-4.4-6.6-6.7l-1.6,1.5
			c2.2,2.3,4.4,4.5,6.6,6.7c2.2,2.2,4.4,4.4,6.6,6.7l0.8,0.8l0.8-0.9c4.1-4.7,8.2-9.1,12.3-13.7l-1.6-1.5
			C267.5,199.9,264,203.8,260.5,207.7z"/>

			<path d="M296,88.6c-2.2-2.2-4.4-4.5-6.6-6.7l-0.8-0.8l-0.8,0.9c-4.1,4.7-8.1,9.1-12.3,13.7l1.6,1.5
			c3.6-4,7.1-7.9,10.7-11.9v81.2h2.2V85.7c1.5,1.5,2.9,3,4.4,4.5c2.2,2.2,4.4,4.4,6.5,6.7l1.6-1.5C300.4,93,298.2,90.8,296,88.6z"/>

		</g>

		<g class="stabilize-secure-connector">

		 	<rect x="119.8" y="250.4" class="st2" width="17.2" height="2"/>

			<path d="M100.4,230.5l10.8,9.7c-3.5,3.5-7.1,7-10.6,10.4l1.4,1.4c3.7-3.6,7.6-7.4,11.3-11.2l0.7-0.7l-12.4-11.1
			L100.4,230.5z"/>

			<path d="M84.9,199.1v71.7h94.6v-71.7H84.9z M177.5,201.1v11.4H86.9v-11.4H177.5z M86.9,268.8V214h90.6v54.9H86.9z"/>

		</g>

		<g class="print-to-pdf">

			<path d="M263.9,286.1l0.7-0.8c1.3-1.5,2.6-2.9,3.9-4.4c2.7-3,5.6-6.2,8.3-9.3l-1.5-1.3c-2.7,3.1-5.5,6.3-8.3,9.3
			c-0.9,1-1.7,1.9-2.6,2.9v-34.5h-2v33.8c-3.5-3.6-7.3-7.4-11-11.1l-1.4,1.4c4.5,4.5,9,9.1,13.1,13.3L263.9,286.1z"/>
			<polygon class="st2" points="281.3,294.6 245.8,294.6 245.8,277.4 243.8,277.4 243.8,296.6 283.3,296.6 283.3,277.4 281.3,277.4 	
			"/>

			<path d="M306.7,230.2L306.7,230.2l0-0.1l-0.1,0l-17.5-18.5l0-0.3h-68.8v113.3h86.4L306.7,230.2L306.7,230.2z
			 M303.8,230.1c-2.4,0-4.8,0.1-7.2,0.1c-2.6,0-5.3,0-7.9,0.1l0.2-15.8L303.8,230.1z M304.7,322.6h-82.4V213.3H287l-0.3,19l1,0
			c2.9,0,5.9-0.1,8.9-0.1c2.7,0,5.3,0,8-0.1V322.6z"/>

		</g>


	</g>
</svg>
