<svg class="training" xmlns="http://www.w3.org/2000/svg" viewBox="0 0 179.2 131.5">
<g>
	<path style="fill:#A7A5A5;" d="M160.1,12.8v6.6h6.6v-6.6H160.1z M164.8,17.6H162v-2.9h2.9V17.6z"/>
	<path style="fill:#A7A5A5;" d="M147.9,19.4h6.6v-6.6h-6.6V19.4z M149.8,14.7h2.9v2.9h-2.9V14.7z"/>
	<path style="fill:#A7A5A5;" d="M179.2,0H44.8v36.5c-0.3,0-0.5,0-0.8,0c-0.8,0.1-1.5,0.2-2.3,0.3c-0.8,0.2-1.5,0.3-2.2,0.6
		c-0.7,0.2-1.5,0.5-2.2,0.8c-0.7,0.3-1.4,0.6-2.1,1c-0.7,0.4-1.3,0.8-2,1.2c-0.6,0.4-1.3,0.9-1.8,1.4c-0.6,0.5-1.2,1-1.7,1.5
		c-0.5,0.5-1.1,1.1-1.5,1.7c-0.5,0.6-0.9,1.2-1.4,1.8c-0.4,0.6-0.8,1.3-1.2,2c-0.4,0.7-0.7,1.4-1,2.1c-0.3,0.7-0.6,1.4-0.8,2.2
		c-0.2,0.7-0.4,1.5-0.6,2.2c-0.2,0.8-0.3,1.5-0.3,2.3c-0.1,0.8-0.1,1.5-0.1,2.3s0,1.5,0.1,2.3c0.1,0.8,0.2,1.5,0.3,2.3
		c0.1,0.7,0.3,1.5,0.6,2.2c0.2,0.7,0.5,1.5,0.8,2.2c0.3,0.7,0.6,1.4,1,2.1c0.4,0.7,0.8,1.3,1.2,2c0.4,0.6,0.9,1.3,1.4,1.8
		c0.5,0.6,1,1.2,1.5,1.7c0.5,0.5,1.1,1.1,1.7,1.5c0.6,0.5,1.2,0.9,1.8,1.4c0.6,0.4,1.3,0.8,2,1.2c0.7,0.4,1.4,0.7,2.1,1
		c0.7,0.3,1.4,0.5,2.2,0.8c0.7,0.2,1.5,0.4,2.2,0.6c0.7,0.1,1.5,0.3,2.3,0.3c0.8,0.1,1.5,0.1,2.3,0.1s1.5,0,2.3-0.1
		c0.8-0.1,1.5-0.2,2.3-0.3c0.8-0.2,1.5-0.3,2.2-0.6c0.7-0.2,1.5-0.5,2.2-0.8c0.7-0.3,1.4-0.6,2.1-1c0.7-0.4,1.3-0.8,2-1.2
		c0.6-0.4,1.3-0.9,1.8-1.4c0.6-0.5,1.2-1,1.7-1.5c0.5-0.5,1.1-1.1,1.5-1.7c0.5-0.6,0.9-1.2,1.4-1.8c0.4-0.6,0.8-1.3,1.2-2
		c0.4-0.7,0.7-1.4,1-2.1c0.3-0.7,0.6-1.4,0.8-2.2c0.2-0.7,0.4-1.5,0.6-2.2c0.1-0.8,0.3-1.5,0.3-2.3c0.1-0.8,0.1-1.5,0.1-2.3
		s0-1.5-0.1-2.3c-0.1-0.8-0.2-1.5-0.3-2.3c-0.1-0.8-0.3-1.5-0.6-2.2c-0.2-0.7-0.5-1.5-0.8-2.2c-0.3-0.7-0.6-1.4-1-2.1
		c-0.4-0.7-0.8-1.3-1.2-2c-0.4-0.6-0.9-1.3-1.4-1.8c-0.5-0.6-1-1.2-1.5-1.7c-0.5-0.5-1.1-1.1-1.7-1.5c-0.6-0.5-1.2-0.9-1.8-1.4
		c-0.6-0.4-1.3-0.8-2-1.2c-0.7-0.4-1.4-0.7-2.1-1c-0.7-0.3-1.4-0.6-2.2-0.8c-0.7-0.2-1.5-0.4-2.2-0.6c-0.8-0.2-1.5-0.3-2.3-0.3
		c-0.3,0-0.5,0-0.8,0v-5h128.4v81.3H88.7c-7.2-16.3-23.5-27.7-42.4-27.7C20.8,85.2,0,105.9,0,131.5h3c0-23.9,19.4-43.3,43.3-43.3
		c23.9,0,43.3,19.4,43.3,43.3h3c0-5.5-1-10.7-2.7-15.6h89.3V0z M50.3,39.8c0.7,0.1,1.3,0.3,1.9,0.5c0.6,0.2,1.3,0.4,1.9,0.7
		c0.6,0.3,1.2,0.5,1.8,0.9c0.6,0.3,1.2,0.7,1.7,1c0.6,0.4,1.1,0.8,1.6,1.2c0.5,0.4,1,0.9,1.5,1.3c0.5,0.5,0.9,1,1.3,1.5
		c0.4,0.5,0.8,1.1,1.2,1.6c0.4,0.6,0.7,1.1,1,1.7c0.3,0.6,0.6,1.2,0.9,1.8c0.3,0.6,0.5,1.2,0.7,1.9c0.2,0.6,0.4,1.3,0.5,1.9
		c0.1,0.7,0.2,1.3,0.3,2c0.1,0.7,0.1,1.3,0.1,2s0,1.3-0.1,2c-0.1,0.7-0.2,1.3-0.3,2c-0.1,0.7-0.3,1.3-0.5,1.9
		c-0.2,0.6-0.4,1.3-0.7,1.9c-0.2,0.6-0.5,1.2-0.9,1.8c-0.3,0.6-0.7,1.2-1,1.7c-0.4,0.6-0.8,1.1-1.2,1.6c-0.4,0.5-0.9,1-1.3,1.5
		c-0.5,0.5-1,0.9-1.5,1.3c-0.5,0.4-1.1,0.8-1.6,1.2c-0.6,0.4-1.1,0.7-1.7,1c-0.6,0.3-1.2,0.6-1.8,0.9c-0.6,0.3-1.2,0.5-1.9,0.7
		c-0.6,0.2-1.3,0.4-1.9,0.5c-0.7,0.1-1.3,0.2-2,0.3c-1.3,0.1-2.7,0.1-4,0c-0.7-0.1-1.3-0.2-2-0.3c-0.7-0.1-1.3-0.3-1.9-0.5
		c-0.6-0.2-1.3-0.4-1.9-0.7c-0.6-0.3-1.2-0.5-1.8-0.9c-0.6-0.3-1.2-0.7-1.7-1c-0.6-0.4-1.1-0.8-1.6-1.2c-0.5-0.4-1-0.9-1.5-1.3
		c-0.5-0.5-0.9-1-1.3-1.5c-0.4-0.5-0.8-1.1-1.2-1.6c-0.4-0.6-0.7-1.1-1-1.7c-0.3-0.6-0.6-1.2-0.9-1.8c-0.3-0.6-0.5-1.3-0.7-1.9
		c-0.2-0.6-0.4-1.3-0.5-1.9c-0.1-0.7-0.2-1.3-0.3-2c-0.1-0.7-0.1-1.3-0.1-2s0-1.3,0.1-2c0.1-0.7,0.2-1.3,0.3-2
		c0.1-0.6,0.3-1.3,0.5-1.9c0.2-0.6,0.4-1.3,0.7-1.9c0.3-0.6,0.5-1.2,0.9-1.8c0.3-0.6,0.7-1.2,1-1.7c0.4-0.6,0.8-1.1,1.2-1.6
		c0.4-0.5,0.9-1,1.3-1.5c0.5-0.5,1-0.9,1.5-1.3c0.5-0.4,1.1-0.8,1.6-1.2c0.6-0.4,1.1-0.7,1.7-1c0.6-0.3,1.2-0.6,1.8-0.9
		c0.6-0.3,1.2-0.5,1.9-0.7c0.6-0.2,1.3-0.4,1.9-0.5c0.7-0.1,1.3-0.2,2-0.3c0.7-0.1,1.3-0.1,2-0.1s1.3,0,2,0.1
		C49,39.6,49.6,39.7,50.3,39.8z M47.8,28.5V3h128.4v25.5H47.8z"/>
</g>
</svg>
